<svg xmlns="http://www.w3.org/2000/svg" xmlns:xlink="http://www.w3.org/1999/xlink" viewBox="0 0 1920 1080"><defs><style>.cls-1,.cls-12,.cls-15{fill:none;}.cls-2{isolation:isolate;}.cls-3{clip-path:url(#clip-path);}.cls-4{fill:#b15ea5;}.cls-5{fill:#7bc258;}.cls-6{fill:#ffcd3e;}.cls-7{fill:#ef4041;}.cls-8{fill:#5a9ed6;}.cls-10,.cls-9{fill:#fff;}.cls-9{opacity:0.81;}.cls-11{fill:#e8b02c;}.cls-12,.cls-15{stroke:#414042;stroke-linecap:round;stroke-miterlimit:10;}.cls-12{stroke-width:4.9px;}.cls-13{fill:#a7a9ac;}.cls-14{fill:#221f1f;}.cls-15{stroke-width:4.08px;}.cls-16{fill:#fde03b;}.cls-17{fill:#414042;}.cls-18{opacity:0.65;}.cls-19{fill:#00589c;}.cls-20{clip-path:url(#clip-path-2);}.cls-21{mix-blend-mode:multiply;}.cls-22{fill:url(#linear-gradient);}.cls-23{fill:url(#linear-gradient-2);}.cls-24{fill:url(#linear-gradient-3);}.cls-25{fill:url(#linear-gradient-4);}</style><clipPath id="clip-path"><rect class="cls-1" y="0.99" width="1924.8" height="1077.58"/></clipPath><clipPath id="clip-path-2"><rect class="cls-1" x="-2010.85" y="1.98" width="1921.96" height="1079.16"/></clipPath><linearGradient id="linear-gradient" x1="25.07" y1="205.86" x2="-186.78" y2="571.02" gradientUnits="userSpaceOnUse"><stop offset="0" stop-color="#498dcb"/><stop offset="0.55" stop-color="#58b3e3"/><stop offset="1" stop-color="#63cdf4"/></linearGradient><linearGradient id="linear-gradient-2" x1="-70.08" y1="150.66" x2="-281.93" y2="515.82" xlink:href="#linear-gradient"/><linearGradient id="linear-gradient-3" x1="-44.48" y1="165.51" x2="-256.33" y2="530.68" xlink:href="#linear-gradient"/><linearGradient id="linear-gradient-4" x1="-12.99" y1="183.78" x2="-224.83" y2="548.94" xlink:href="#linear-gradient"/></defs><title>BG3</title><g class="cls-2"><g id="Layer_3" data-name="Layer 3"><g class="cls-3"><path class="cls-4" d="M2648.36,149.13c-35.37,95.15-54.55,240.94-163.87,291.73-128.58,59.74-292.21,86.93-313,195.73-57.51,300.65-136.16,427.3-246.67,442-115.66,15.36-143.8,133.61-227.18,184.83H728.36V149.13Z"/><path class="cls-5" d="M2593.86,61.2c-35.37,95.14-54.55,240.94-163.88,291.73-128.58,59.74-292.2,86.93-313,195.73-57.52,300.64-136.16,427.3-246.67,442-115.67,15.36-143.81,133.61-227.18,184.82H673.86V61.2Z"/><path class="cls-6" d="M2509.34,2.54c-35.37,95.14-54.55,240.94-163.87,291.73C2216.89,354,2053.26,381.2,2032.45,490c-57.51,300.64-136.16,427.3-246.67,442-115.66,15.36-143.8,133.61-227.18,184.82H589.34V2.54Z"/><path class="cls-7" d="M2313.51.23C2278.13,95.37,2259,241.17,2149.63,292c-128.58,59.74-292.21,86.93-313,195.73C1779.1,788.33,1700.45,915,1590,929.67c-115.67,15.36-143.81,133.61-227.19,184.82H393.51V.23Z"/><path class="cls-8" d="M2186.87-.62C2151.5,91.53,2132.32,232.74,2023,281.93c-128.58,57.85-292.2,84.19-313,189.56-57.51,291.17-136.16,413.84-246.66,428.05-115.67,14.88-143.81,129.41-227.19,179H266.87V-.62Z"/><circle class="cls-9" cx="1588.11" cy="651.68" r="311.73"/><path class="cls-10" d="M117.25-1.62V2H0V1076.55H117.25v1h969.26c83.37-49.6,111.51-164.13,227.18-179,110.51-14.21,189.15-136.88,246.67-428,20.81-105.37,184.43-131.71,313-189.56,109.32-49.19,128.5-190.4,163.87-282.55Z"/><path class="cls-11" d="M1795.19,588.82c-111.64,147.87-152.77,20.11-214.48,20.56-32.32.24-55.81,133.18-214.49-20.56,0-118.45,96-214.49,214.49-214.49S1795.19,470.37,1795.19,588.82Z"/><path class="cls-11" d="M1366.22,588.82c23.52,133.81,88.15,150.18,123.41,290.06,76.54,51,70.66,39.19,193.92,10,17.61-128.73,111.64-206.38,111.64-300.1C1801.06,448.75,1383.86,476.2,1366.22,588.82Z"/><path class="cls-12" d="M1483.77,629.58s40.65,93.33,52.93,127.95,12.64,117.29,12.64,117.29"/><path class="cls-12" d="M1692.46,629.58s-40.63,93.33-52.92,127.95-12.64,117.29-12.64,117.29"/><path class="cls-13" d="M1512.88,943.6v66.19c0,20.36,13.21,36.86,29.51,36.85h88.49c16.26,0,29.47-16.49,29.47-36.85V943.6Z"/><path class="cls-14" d="M1476.15,862.42V969.74A36.85,36.85,0,0,0,1513,1006.6h147.27a36.85,36.85,0,0,0,36.83-36.86V862.42Z"/><path class="cls-15" d="M1545.32,663.67c0,15.52-9.59,28.09-21.4,28.09s-21.38-12.57-21.38-28.09,9.56-28.06,21.38-28.06S1545.32,648.19,1545.32,663.67Z"/><path class="cls-15" d="M1588.11,663.67c0,15.52-9.56,28.09-21.4,28.08s-21.39-12.56-21.39-28.08,9.59-28.06,21.4-28.06S1588.12,648.19,1588.11,663.67Z"/><path class="cls-15" d="M1630.92,663.67c0,15.52-9.58,28.09-21.4,28.08s-21.4-12.56-21.41-28.08,9.59-28.06,21.41-28.06S1630.92,648.19,1630.92,663.67Z"/><path class="cls-15" d="M1673.71,663.67c0,15.52-9.57,28.09-21.39,28.09s-21.4-12.57-21.4-28.09,9.58-28.06,21.41-28.06S1673.7,648.19,1673.71,663.67Z"/><path class="cls-16" d="M1512.88,413.73c52.93-39.06,147.36-5.84,182.33,19.57,48.62,35.32,84.52,113.32,78.91,163.74s-26.94,77-46.77,124c-7,16.69,24.11-50.85-13.77-141.92-28.28-68-110-85.29-164.24-91.56C1511.42,483.13,1460.24,452.59,1512.88,413.73Z"/><path class="cls-17" d="M1704.56,894.76a5.16,5.16,0,0,1-5,5.3H1472.65a5.16,5.16,0,0,1-5-5.29v-9.21a5.17,5.17,0,0,1,5-5.3h226.88a5.18,5.18,0,0,1,5,5.3Z"/><path class="cls-17" d="M1704.57,926.44a5.18,5.18,0,0,1-5,5.3H1472.65a5.17,5.17,0,0,1-5-5.3v-9.21a5.18,5.18,0,0,1,5-5.3h226.88a5.17,5.17,0,0,1,5,5.3Z"/><path class="cls-17" d="M1705.09,958.12a5.18,5.18,0,0,1-5,5.3H1473.18a5.18,5.18,0,0,1-5-5.3v-9.21a5.19,5.19,0,0,1,5-5.31h226.87a5.18,5.18,0,0,1,5,5.31Z"/><g class="cls-18"><polygon class="cls-19" points="1639.92 200.39 1635.72 196.19 1639.92 191.99 1635.99 188.07 1631.8 192.27 1627.6 188.07 1623.68 191.99 1627.88 196.19 1623.68 200.39 1627.6 204.31 1631.8 200.11 1635.99 204.31 1639.92 200.39"/><polygon class="cls-19" points="1661.7 222.18 1657.51 217.98 1661.7 213.78 1657.79 209.86 1653.59 214.06 1649.39 209.86 1645.47 213.78 1649.67 217.98 1645.47 222.18 1649.39 226.1 1653.59 221.9 1657.79 226.1 1661.7 222.18"/><polygon class="cls-19" points="1683.49 243.97 1679.3 239.77 1683.49 235.57 1679.57 231.65 1675.38 235.85 1671.18 231.65 1667.26 235.57 1671.45 239.77 1667.26 243.97 1671.18 247.89 1675.38 243.69 1679.57 247.89 1683.49 243.97"/></g><g class="cls-18"><polygon class="cls-19" points="1660.04 180.27 1655.84 176.07 1660.04 171.87 1656.12 167.95 1651.92 172.15 1647.72 167.95 1643.8 171.87 1648 176.07 1643.8 180.27 1647.72 184.19 1651.92 179.99 1656.12 184.19 1660.04 180.27"/><polygon class="cls-19" points="1681.83 202.06 1677.63 197.86 1681.83 193.66 1677.9 189.74 1673.71 193.94 1669.51 189.74 1665.59 193.66 1669.79 197.86 1665.59 202.06 1669.51 205.98 1673.71 201.78 1677.9 205.98 1681.83 202.06"/><polygon class="cls-19" points="1703.62 223.84 1699.42 219.65 1703.62 215.45 1699.69 211.53 1695.5 215.73 1691.3 211.53 1687.38 215.45 1691.58 219.65 1687.38 223.84 1691.3 227.77 1695.5 223.57 1699.69 227.77 1703.62 223.84"/></g><g class="cls-18"><polygon class="cls-19" points="1680.16 160.15 1675.96 155.95 1680.16 151.75 1676.24 147.83 1672.04 152.03 1667.84 147.83 1663.92 151.75 1668.12 155.95 1663.92 160.15 1667.84 164.07 1672.04 159.87 1676.24 164.07 1680.16 160.15"/><polygon class="cls-19" points="1701.95 181.94 1697.75 177.74 1701.95 173.54 1698.03 169.62 1693.83 173.82 1689.63 169.62 1685.71 173.54 1689.91 177.74 1685.71 181.94 1689.63 185.86 1693.83 181.66 1698.03 185.86 1701.95 181.94"/><polygon class="cls-19" points="1723.73 203.72 1719.54 199.53 1723.73 195.33 1719.81 191.41 1715.62 195.61 1711.42 191.41 1707.5 195.33 1711.7 199.53 1707.5 203.72 1711.42 207.65 1715.62 203.45 1719.81 207.65 1723.73 203.72"/></g><path class="cls-6" d="M186.78,57a4.38,4.38,0,1,1-1.31-6A4.38,4.38,0,0,1,186.78,57Z"/><path class="cls-6" d="M205.67,69.17a4.37,4.37,0,1,1-1.3-6A4.38,4.38,0,0,1,205.67,69.17Z"/><path class="cls-6" d="M224.56,81.37a4.37,4.37,0,1,1-1.3-6.05A4.37,4.37,0,0,1,224.56,81.37Z"/><path class="cls-6" d="M243.46,93.57a4.38,4.38,0,1,1-1.31-6A4.38,4.38,0,0,1,243.46,93.57Z"/><path class="cls-6" d="M262.35,105.77a4.38,4.38,0,1,1-1.3-6A4.38,4.38,0,0,1,262.35,105.77Z"/><path class="cls-6" d="M281.24,118a4.37,4.37,0,1,1-1.3-6A4.38,4.38,0,0,1,281.24,118Z"/><path class="cls-6" d="M174.58,75.87a4.38,4.38,0,1,1-1.3-6.05A4.38,4.38,0,0,1,174.58,75.87Z"/><path class="cls-6" d="M193.47,88.07a4.38,4.38,0,1,1-1.3-6A4.37,4.37,0,0,1,193.47,88.07Z"/><path class="cls-6" d="M212.36,100.26a4.37,4.37,0,1,1-1.3-6A4.37,4.37,0,0,1,212.36,100.26Z"/><path class="cls-6" d="M231.26,112.46a4.37,4.37,0,1,1-1.3-6A4.38,4.38,0,0,1,231.26,112.46Z"/><path class="cls-6" d="M250.15,124.66a4.38,4.38,0,1,1-1.3-6A4.38,4.38,0,0,1,250.15,124.66Z"/><path class="cls-6" d="M269,136.86a4.37,4.37,0,1,1-1.3-6.05A4.36,4.36,0,0,1,269,136.86Z"/><path class="cls-6" d="M162.38,94.76a4.37,4.37,0,1,1-1.3-6.05A4.38,4.38,0,0,1,162.38,94.76Z"/><path class="cls-6" d="M181.28,107a4.38,4.38,0,1,1-1.31-6A4.38,4.38,0,0,1,181.28,107Z"/><path class="cls-6" d="M200.17,119.16a4.38,4.38,0,1,1-1.3-6A4.38,4.38,0,0,1,200.17,119.16Z"/><path class="cls-6" d="M219.06,131.35a4.37,4.37,0,1,1-1.3-6A4.38,4.38,0,0,1,219.06,131.35Z"/><path class="cls-6" d="M238,143.55a4.37,4.37,0,1,1-1.3-6.05A4.36,4.36,0,0,1,238,143.55Z"/><path class="cls-6" d="M256.85,155.75a4.38,4.38,0,1,1-1.31-6.05A4.38,4.38,0,0,1,256.85,155.75Z"/><path class="cls-6" d="M150.18,113.65a4.37,4.37,0,1,1-1.3-6A4.37,4.37,0,0,1,150.18,113.65Z"/><path class="cls-6" d="M169.08,125.85a4.37,4.37,0,1,1-1.3-6A4.37,4.37,0,0,1,169.08,125.85Z"/><path class="cls-6" d="M188,138.05a4.38,4.38,0,1,1-1.3-6.05A4.38,4.38,0,0,1,188,138.05Z"/><path class="cls-6" d="M206.86,150.25a4.37,4.37,0,1,1-1.3-6.05A4.36,4.36,0,0,1,206.86,150.25Z"/><path class="cls-6" d="M225.76,162.44a4.37,4.37,0,1,1-1.31-6A4.38,4.38,0,0,1,225.76,162.44Z"/><path class="cls-6" d="M244.65,174.64a4.37,4.37,0,1,1-1.3-6A4.38,4.38,0,0,1,244.65,174.64Z"/><path class="cls-6" d="M138,132.55a4.38,4.38,0,1,1-1.31-6.05A4.38,4.38,0,0,1,138,132.55Z"/><path class="cls-6" d="M156.88,144.74a4.37,4.37,0,1,1-1.3-6A4.38,4.38,0,0,1,156.88,144.74Z"/><path class="cls-6" d="M175.77,156.94a4.37,4.37,0,1,1-1.3-6A4.36,4.36,0,0,1,175.77,156.94Z"/><path class="cls-6" d="M194.67,169.14a4.37,4.37,0,1,1-1.31-6A4.38,4.38,0,0,1,194.67,169.14Z"/><path class="cls-6" d="M213.56,181.34a4.38,4.38,0,1,1-1.3-6.05A4.38,4.38,0,0,1,213.56,181.34Z"/><path class="cls-6" d="M232.45,193.54a4.38,4.38,0,1,1-1.3-6A4.39,4.39,0,0,1,232.45,193.54Z"/><path class="cls-6" d="M125.79,151.44a4.37,4.37,0,1,1-1.3-6.05A4.38,4.38,0,0,1,125.79,151.44Z"/><path class="cls-6" d="M144.68,163.64a4.38,4.38,0,1,1-1.3-6A4.36,4.36,0,0,1,144.68,163.64Z"/><path class="cls-6" d="M163.58,175.83a4.37,4.37,0,1,1-1.31-6A4.38,4.38,0,0,1,163.58,175.83Z"/><path class="cls-6" d="M182.47,188a4.37,4.37,0,1,1-1.3-6A4.37,4.37,0,0,1,182.47,188Z"/><path class="cls-6" d="M201.36,200.23a4.37,4.37,0,1,1-1.3-6A4.37,4.37,0,0,1,201.36,200.23Z"/><path class="cls-6" d="M220.26,212.43a4.38,4.38,0,1,1-1.31-6.05A4.38,4.38,0,0,1,220.26,212.43Z"/><path class="cls-7" d="M266.58,892.28a6.76,6.76,0,1,0-9.53-.79A6.77,6.77,0,0,0,266.58,892.28Z"/><path class="cls-7" d="M270.25,915.76a6.79,6.79,0,0,0-9.53-.79l-10.5,8.9c-7.6,4.27-14.16-3.79-9.54-9.65l9.41-8a6.77,6.77,0,0,0,.79-9.52h0a6.77,6.77,0,0,0-9.52-.79L95.23,1019.68a6.76,6.76,0,0,0,6.85,11.44L84.3,1046.17a6.79,6.79,0,0,0-.79,9.53l.25.29a6.79,6.79,0,0,0,9.53.79l21.31-18.06a6.79,6.79,0,0,0-.79,9.53h0a6.78,6.78,0,0,0,9.53.79L269.46,925.29a6.78,6.78,0,0,0,.79-9.53Zm-31.37,17.71h0l-17,14.38Z"/><path class="cls-7" d="M303.1,887.94h0a6.75,6.75,0,0,0-9.52-.79l-14.31,12.12A6.76,6.76,0,1,0,288,909.58l14.3-12.11A6.76,6.76,0,0,0,303.1,887.94Z"/></g></g><g id="BG_2" data-name="BG 2"><g class="cls-20"><g id="BG2"><g class="cls-21"><path class="cls-22" d="M15.55,222.21l6.74,11.67-6.74,11.67H2.08l-6.74-11.67,6.74-11.67H15.55m.51-.88H1.57l-7.24,12.55,7.24,12.54H16.06l7.24-12.54-7.24-12.55Z"/></g><g class="cls-21"><circle class="cls-23" cx="6.56" cy="18.55" r="5.23"/></g><g class="cls-21"><path class="cls-24" d="M1.53,89.37A1.83,1.83,0,0,1-.3,91.2a1.83,1.83,0,0,1-1.83-1.83A1.83,1.83,0,0,1-.3,87.54,1.83,1.83,0,0,1,1.53,89.37Z"/></g><g class="cls-21"><path class="cls-25" d="M12.31,142.49A1.34,1.34,0,1,1,11,141.14,1.34,1.34,0,0,1,12.31,142.49Z"/></g></g></g></g></g></svg>