<svg id="Layer_1" data-name="Layer 1" xmlns="http://www.w3.org/2000/svg" viewBox="0 0 515.23 154.41"><defs><style>.cls-1,.cls-3{fill:#fff;}.cls-2{fill:none;stroke:#fff;stroke-miterlimit:10;}.cls-3{fill-rule:evenodd;}</style></defs><title>Logo 3</title><path class="cls-1" d="M69.76,110.63H59L43.42,70.25h9.75l11.2,31,11.2-31h9.75Z"/><path class="cls-1" d="M97.67,110.63h-8.6V70.25h8.6Z"/><path class="cls-1" d="M123.64,110.63H115V77.82h-11.8V70.25h32.21v7.57H123.64Z"/><path class="cls-1" d="M174.68,110.63h-9.75l-2.54-6.84H145.08l-2.55,6.84h-9.75l15.56-40.38h10.78ZM160,96.22l-6.3-17.38-6.29,17.38Z"/><path class="cls-1" d="M196,111.36a21.52,21.52,0,0,1-15.41-5.84,19.87,19.87,0,0,1-6.14-15q0-9.27,6.14-15.08A21.58,21.58,0,0,1,196,69.58q11.32,0,16.84,9.87l-7.39,3.63a11.13,11.13,0,0,0-3.91-4.2A10,10,0,0,0,196,77.21,12.09,12.09,0,0,0,186.88,81a14.36,14.36,0,0,0,0,19,12.09,12.09,0,0,0,9.11,3.75,10,10,0,0,0,5.54-1.67,11.13,11.13,0,0,0,3.91-4.2l7.39,3.57Q207.19,111.36,196,111.36Z"/><path class="cls-1" d="M315.45,110.63H305.7l-2.54-6.84H285.84l-2.54,6.84h-9.75l15.56-40.38h10.78ZM300.8,96.22l-6.3-17.38-6.3,17.38Z"/><path class="cls-1" d="M352,110.63H342l-7.94-14.35H327.8v14.35h-8.6V70.25h18.89q6.24,0,9.93,3.63a12.59,12.59,0,0,1,3.69,9.38,12,12,0,0,1-2.63,8.06,11.52,11.52,0,0,1-6.27,3.93ZM336.88,88.71a6.3,6.3,0,0,0,4.3-1.48,5.08,5.08,0,0,0,1.69-4,4.93,4.93,0,0,0-1.69-3.9,6.3,6.3,0,0,0-4.3-1.48H327.8V88.71Z"/><path class="cls-1" d="M390.89,110.63H381L373,96.28h-6.3v14.35h-8.6V70.25H377q6.24,0,9.93,3.63a12.59,12.59,0,0,1,3.69,9.38A12,12,0,0,1,388,91.32a11.48,11.48,0,0,1-6.27,3.93ZM375.81,88.71a6.28,6.28,0,0,0,4.3-1.48,5.08,5.08,0,0,0,1.69-4,4.93,4.93,0,0,0-1.69-3.9,6.28,6.28,0,0,0-4.3-1.48h-9.08V88.71Z"/><path class="cls-1" d="M434.72,110.63H425l-2.54-6.84H405.11l-2.54,6.84h-9.75l15.56-40.38h10.78ZM420.07,96.22l-6.3-17.38-6.29,17.38Z"/><path class="cls-1" d="M454.28,110.63h-8.6V94.1l-15.5-23.85H440l10,16.16,10-16.16h9.75L454.28,94.1Z"/><g id="Gray"><path class="cls-1" d="M53.74,49.47a1.9,1.9,0,0,0-.7-1.65,3.13,3.13,0,0,0-2-.59c-1.23,0-2.3.77-2.3,1.7,0,1.36,1.71,1.8,3.13,2.16,3.23.8,7.93,1.11,7.93,6.13,0,3.91-4,5.76-8.47,5.76s-8.44-1.26-8.52-6.3H48.1c0,1.74,1.31,2.7,3.23,2.7,1.23,0,2.81-.62,2.81-1.86,0-2.52-4-2-8.15-3.75a4.67,4.67,0,0,1-2.91-4.53c.21-4.4,4.22-5.61,8.25-5.61S59.4,45,59.08,49.47Z"/><polygon class="cls-1" points="64.5 55.8 57.13 44.01 63.33 44.01 67.55 51.81 71.9 44.01 77.41 44.01 69.84 55.8 69.84 62.59 64.5 62.59 64.5 55.8"/><polygon class="cls-1" points="88.57 44.01 94.9 44.01 88.25 52.2 95.43 62.59 88.81 62.59 82.45 52.71 82.39 52.71 82.39 62.59 77.05 62.59 77.05 44.01 82.39 44.01 82.39 52.17 82.45 52.17 88.57 44.01"/><polygon class="cls-1" points="95.6 62.59 95.6 44.01 110.29 44.01 110.29 47.62 100.94 47.62 100.94 51.45 109.55 51.45 109.55 55.05 100.94 55.05 100.94 58.99 110.29 58.99 110.29 62.59 95.6 62.59"/><path class="cls-1" d="M120.75,49.47a1.89,1.89,0,0,0-.69-1.65,3.16,3.16,0,0,0-2.06-.59c-1.23,0-2.3.77-2.3,1.7,0,1.36,1.71,1.8,3.13,2.16,3.23.8,7.93,1.11,7.93,6.13,0,3.91-4,5.76-8.46,5.76s-8.44-1.26-8.53-6.3h5.35c0,1.74,1.31,2.7,3.23,2.7,1.23,0,2.81-.62,2.81-1.86,0-2.52-4-2-8.15-3.75a4.68,4.68,0,0,1-2.92-4.53c.22-4.4,4.23-5.61,8.26-5.61s8.07,1.36,7.75,5.84Z"/><path class="cls-1" d="M126.23,45.28a2.37,2.37,0,1,1,2.38,2.37,2.37,2.37,0,0,1-2.38-2.37m4.32,0a2,2,0,1,0-1.94,2,2,2,0,0,0,1.94-2m-2.45.16v1.2h-.43V43.85h.9c.51,0,1,.14,1,.77a.64.64,0,0,1-.57.65h0c.38.08.43.25.47.55a3.65,3.65,0,0,0,.17.81h-.56c0-.16-.07-.33-.09-.5s0-.46-.16-.59a.56.56,0,0,0-.4-.11Zm.46-.44c.41,0,.51-.18.51-.4s-.1-.31-.45-.31h-.52V45Z"/></g><rect class="cls-2" x="239.14" y="57.11" width="12.31" height="53.36" rx="2.47"/><rect class="cls-1" x="239.14" y="62.27" width="12.31" height="6.71"/><path class="cls-3" d="M234.82,63.93h-7.36A2.49,2.49,0,0,0,225,66.4V108a2.48,2.48,0,0,0,2.48,2.47h7.36a2.48,2.48,0,0,0,2.47-2.47V66.4A2.48,2.48,0,0,0,234.82,63.93Zm-3.53,18.83c-1.72,0-3.12-3.34-3.12-7.45s1.4-7.45,3.12-7.45,3.12,3.34,3.12,7.45S233,82.76,231.29,82.76Z"/><rect class="cls-1" x="239.14" y="97.34" width="12.31" height="2.37"/><rect class="cls-1" x="239.14" y="101.21" width="12.31" height="2.37"/><path class="cls-3" d="M263.14,73h-7.37a2.48,2.48,0,0,0-2.47,2.47v32.73a2.48,2.48,0,0,0,2.47,2.47h7.37a2.48,2.48,0,0,0,2.47-2.47V75.5A2.48,2.48,0,0,0,263.14,73ZM260,104.5h-3.68V79.93H260Zm2.38.06h-1.84V80h1.84Z"/></svg>