<svg xmlns="http://www.w3.org/2000/svg" viewBox="0 0 62.75 80.7"><defs><style>.cls-1{fill:#25a9e0;}.cls-2{fill:#00adee;}.cls-3{fill:#fff;}.cls-4{fill:#1688c9;}</style></defs><title>Navigator Ion</title><g id="Layer_2" data-name="Layer 2"><g id="Board_1" data-name="Board 1"><path id="BG_Left" data-name="BG Left" class="cls-1" d="M2.17,49.69c0,.4,0,.79,0,1.18a29.2,29.2,0,0,0,29.17,28V20.49A29.21,29.21,0,0,0,2.17,49.69Z"/><path id="BG_Right" data-name="BG Right" class="cls-2" d="M54.38,31.71a29.14,29.14,0,0,0-23-11.22V78.9a29.2,29.2,0,0,0,23-47.19Z"/><path id="White_Arrow" data-name="White Arrow" class="cls-3" d="M38.61,48,44,37.08,33.08,42.46a7.42,7.42,0,0,0-8.94,8.94L18.76,62.31l10.91-5.38A7.42,7.42,0,0,0,38.61,48Zm-9.8,5.25a4.38,4.38,0,1,1,5.13,0A4.37,4.37,0,0,1,28.81,53.24Z"/><g id="Blue_Arrows" data-name="Blue Arrows"><polygon class="cls-4" points="25.86 78.9 31.37 78.9 36.88 78.9 31.37 70.25 25.86 78.9"/><polygon class="cls-4" points="25.86 20.49 31.37 29.14 36.88 20.49 31.37 20.49 25.86 20.49"/><polygon class="cls-4" points="2.17 49.69 2.17 55.2 10.82 49.69 2.17 44.19 2.17 49.69"/><polygon class="cls-4" points="51.92 49.69 60.58 55.2 60.58 49.69 60.58 44.19 51.92 49.69"/></g><g id="Dots"><circle class="cls-3" cx="49.11" cy="32.25" r="0.88"/><circle class="cls-3" cx="13.64" cy="67.14" r="0.88"/><circle class="cls-3" cx="48.96" cy="67.28" r="0.88"/><circle class="cls-3" cx="13.78" cy="32.1" r="0.88"/></g><path id="Outline" class="cls-4" d="M31.37,18A31.37,31.37,0,1,0,62.75,49.33,31.37,31.37,0,0,0,31.37,18Zm0,58.41a27,27,0,1,1,27.05-27A27,27,0,0,1,31.37,76.37Z"/><rect id="Chain" class="cls-4" x="27.19" y="10.2" width="8.38" height="12.08" rx="3.99"/><path id="Ring" class="cls-4" d="M31.37,0A8.63,8.63,0,1,0,40,8.62,8.62,8.62,0,0,0,31.37,0Zm0,13.38a4.76,4.76,0,1,1,4.76-4.76A4.76,4.76,0,0,1,31.37,13.38Z"/></g></g></svg>