<svg xmlns="http://www.w3.org/2000/svg" viewBox="0 0 156 35.49"><defs><style>.cls-1{fill:#929596;}</style></defs><title>SYKES Gray</title><g id="Layer_2" data-name="Layer 2"><g id="Layer_1-2" data-name="Layer 1"><path class="cls-1" d="M19.41,11.59a3.3,3.3,0,0,0-1.22-2.91,5.56,5.56,0,0,0-3.64-1c-2.17,0-4.06,1.37-4.06,3,0,2.41,3,3.18,5.52,3.82,5.72,1.41,14,2,14,10.83,0,6.92-7.09,10.2-15,10.2S.14,33.26,0,24.34H9.45c0,3.09,2.31,4.77,5.71,4.77,2.18,0,5-1.09,5-3.27,0-4.46-7-3.51-14.42-6.65a8.26,8.26,0,0,1-5.15-8C1,3.4,8,1.26,15.16,1.26S29.43,3.68,28.87,11.59Z"/><polygon class="cls-1" points="38.45 22.79 25.41 1.95 36.37 1.95 43.84 15.73 51.54 1.95 61.27 1.95 47.9 22.79 47.9 34.8 38.45 34.8 38.45 22.79"/><polygon class="cls-1" points="81.01 1.95 92.21 1.95 80.44 16.42 93.15 34.8 81.44 34.8 70.19 17.33 70.09 17.33 70.09 34.8 60.65 34.8 60.65 1.95 70.09 1.95 70.09 16.37 70.19 16.37 81.01 1.95"/><polygon class="cls-1" points="93.45 34.8 93.45 1.95 119.44 1.95 119.44 8.32 102.9 8.32 102.9 15.1 118.11 15.1 118.11 21.47 102.9 21.47 102.9 28.43 119.44 28.43 119.44 34.8 93.45 34.8"/><path class="cls-1" d="M137.94,11.59a3.36,3.36,0,0,0-1.23-2.91,5.56,5.56,0,0,0-3.64-1c-2.18,0-4.07,1.37-4.07,3,0,2.41,3,3.18,5.53,3.82,5.72,1.41,14,2,14,10.83,0,6.92-7.08,10.2-15,10.2s-14.93-2.23-15.07-11.15H128c0,3.09,2.31,4.77,5.71,4.77,2.17,0,5-1.09,5-3.27,0-4.46-7-3.51-14.41-6.65a8.24,8.24,0,0,1-5.15-8c.38-7.78,7.47-9.92,14.6-9.92S148,3.68,147.38,11.59Z"/><path class="cls-1" d="M147.62,4.18a4.19,4.19,0,1,1,4.19,4.21,4.19,4.19,0,0,1-4.19-4.21m7.64,0a3.46,3.46,0,1,0-3.45,3.46,3.44,3.44,0,0,0,3.45-3.46m-4.33.28V6.59h-.77V1.67h1.59c.91,0,1.84.24,1.84,1.35a1.14,1.14,0,0,1-1,1.15v0c.68.14.76.44.83,1a7.72,7.72,0,0,0,.29,1.43h-1c0-.28-.13-.59-.16-.88a2,2,0,0,0-.28-1c-.19-.2-.45-.18-.72-.2Zm.81-.77c.73,0,.89-.32.89-.7s-.16-.56-.78-.56h-.92V3.69Z"/></g></g></svg>